<?xml version="1.0" encoding="utf-8"?>
<!-- Generator: Adobe Illustrator 27.4.1, SVG Export Plug-In . SVG Version: 6.00 Build 0)  -->
<svg version="1.1" id="sun" xmlns="http://www.w3.org/2000/svg" xmlns:xlink="http://www.w3.org/1999/xlink" x="0px" y="0px"
	 viewBox="0 0 600 600" style="enable-background:new 0 0 600 600;" xml:space="preserve">
<style type="text/css">
	.st0{fill:#FFFFFF;enable-background:new    ;}
</style>
<path class="st0" d="M544.83,309.54c-38.06,38.88-77.65,23.2-141.17-36.01c42-2.24,133.38-14.57,112.62-86.79
	c-13.52,52.7-55.65,58.91-140.26,39.4c35.26-22.94,108.22-79.31,54.14-131.48c14.64,52.4-18.74,78.85-101.77,104.25
	c19.06-37.5,54.07-122.79-18.85-140.93c38.88,38.06,23.2,77.65-36.01,141.17c-2.24-42-14.57-133.38-86.79-112.62
	c52.7,13.52,58.91,55.65,39.4,140.26c-22.94-35.26-79.31-108.22-131.48-54.14c52.4-14.64,78.85,18.74,104.25,101.77
	c-37.5-19.06-122.79-54.07-140.93,18.85c38.06-38.88,77.65-23.2,141.17,36.01c-42,2.24-133.38,14.57-112.62,86.79
	c13.52-52.7,55.65-58.91,140.26-39.4c-35.26,22.94-108.22,79.31-54.14,131.48C158,455.75,191.38,429.3,274.42,403.9
	c-19.06,37.5-54.07,122.79,18.85,140.93c-38.88-38.06-23.2-77.65,36.01-141.17c2.24,42,14.57,133.38,86.79,112.62
	c-52.7-13.52-58.91-55.65-39.4-140.26c22.94,35.26,79.31,108.22,131.48,54.14c-52.4,14.64-78.85-18.74-104.25-101.77
	C441.39,347.45,526.69,382.46,544.83,309.54z M300,366.17c-36.55,0-66.17-29.63-66.17-66.17c0-36.55,29.63-66.17,66.17-66.17
	s66.17,29.63,66.17,66.17C366.17,336.55,336.55,366.17,300,366.17z"/>
</svg>
