<?xml version="1.0" encoding="utf-8"?>
<!-- Generator: Adobe Illustrator 27.4.1, SVG Export Plug-In . SVG Version: 6.00 Build 0)  -->
<svg version="1.1" id="moon" xmlns="http://www.w3.org/2000/svg" xmlns:xlink="http://www.w3.org/1999/xlink" x="0px" y="0px"
	 viewBox="0 0 600 600" style="enable-background:new 0 0 600 600;" xml:space="preserve">
<style type="text/css">
	.st0{fill:#FFFFFF;}
</style>
<path class="st0" d="M327.49,128.99c13.02,21.8,20.51,47.28,20.51,74.51c0,80.36-65.14,145.5-145.5,145.5
	c-30.17,0-58.2-9.18-81.44-24.91c20.18,63.86,79.9,110.16,150.44,110.16c87.12,0,157.75-70.63,157.75-157.75
	C429.25,209.1,386.97,151.58,327.49,128.99z"/>
<polygon class="st0" points="224.96,144.04 269.17,132.99 224.96,121.93 213.91,77.72 202.85,121.93 158.64,132.99 202.85,144.04 
	213.91,188.25 "/>
<polygon class="st0" points="126.09,250.37 156.6,242.74 126.09,235.12 118.47,204.61 110.84,235.12 80.33,242.74 110.84,250.37 
	118.47,280.88 "/>
<polygon class="st0" points="250.6,233.53 276.78,226.98 250.6,220.44 244.06,194.26 237.51,220.44 211.33,226.98 237.51,233.53 
	244.06,259.71 "/>
<polygon class="st0" points="475.46,202.83 505.07,195.43 475.46,188.02 468.05,158.41 460.65,188.02 431.03,195.43 460.65,202.83 
	468.05,232.45 "/>
<polygon class="st0" points="487.57,344.09 509.76,338.55 487.57,333 482.03,310.82 476.48,333 454.3,338.55 476.48,344.09 
	482.03,366.28 "/>
<polygon class="st0" points="428.03,458.42 466.26,448.86 428.03,439.31 418.47,401.07 408.91,439.31 370.67,448.86 408.91,458.42 
	418.47,496.66 "/>
<polygon class="st0" points="203.79,487.43 232.29,480.3 203.79,473.18 196.66,444.67 189.54,473.18 161.03,480.3 189.54,487.43 
	196.66,515.93 "/>
</svg>
